<svg width="160" height="24" viewBox="0 0 160 24" fill="none" xmlns="http://www.w3.org/2000/svg">
<path d="M38.4681 4.29699H42.5213L46.8022 14.7559H46.9844L51.2653 4.29699H55.3185V19.8637H52.1306V9.73167H52.0016L47.9787 19.7877H45.8079L41.785 9.69367H41.656V19.8637H38.4681V4.29699Z" fill="white"/>
<path d="M67.6281 4.29699H70.9147V14.4063C70.9147 15.5413 70.6439 16.5345 70.1025 17.3858C69.5661 18.2371 68.8147 18.901 67.8482 19.3773C66.8817 19.8485 65.7558 20.0842 64.4705 20.0842C63.1802 20.0842 62.0517 19.8485 61.0852 19.3773C60.1187 18.901 59.3673 18.2371 58.8309 17.3858C58.2945 16.5345 58.0264 15.5413 58.0264 14.4063V4.29699H61.313V14.125C61.313 14.7179 61.442 15.2449 61.7001 15.706C61.9632 16.1671 62.3326 16.5295 62.8082 16.793C63.2839 17.0565 63.838 17.1882 64.4705 17.1882C65.1081 17.1882 65.6622 17.0565 66.1328 16.793C66.6084 16.5295 66.9753 16.1671 67.2334 15.706C67.4965 15.2449 67.6281 14.7179 67.6281 14.125V4.29699Z" fill="white"/>
<path d="M73.6187 19.8637V4.29699H76.9053V17.1502H83.5696V19.8637H73.6187Z" fill="white"/>
<path d="M83.2128 7.01053V4.29699H95.9797V7.01053H91.2206V19.8637H87.9719V7.01053H83.2128Z" fill="white"/>
<path d="M101.369 4.29699V19.8637H98.0822V4.29699H101.369Z" fill="white"/>
<path d="M112.506 8.77395C112.445 8.16081 112.184 7.68448 111.724 7.34497C111.263 7.00547 110.638 6.83571 109.849 6.83571C109.313 6.83571 108.86 6.91172 108.49 7.06374C108.121 7.21069 107.838 7.41592 107.64 7.67942C107.448 7.94292 107.352 8.24189 107.352 8.57633C107.342 8.85503 107.4 9.09826 107.526 9.30602C107.658 9.51378 107.838 9.69367 108.065 9.84569C108.293 9.99264 108.556 10.1219 108.855 10.2333C109.153 10.3397 109.472 10.431 109.811 10.507L111.208 10.8414C111.886 10.9934 112.508 11.1961 113.075 11.4495C113.642 11.7029 114.133 12.0145 114.547 12.3844C114.962 12.7543 115.284 13.1901 115.511 13.6918C115.744 14.1934 115.863 14.7686 115.868 15.4172C115.863 16.3698 115.62 17.1958 115.139 17.8951C114.664 18.5893 113.976 19.129 113.075 19.5141C112.179 19.8941 111.099 20.0842 109.834 20.0842C108.579 20.0842 107.486 19.8916 106.555 19.5065C105.629 19.1214 104.905 18.5513 104.384 17.7963C103.868 17.0362 103.597 16.0962 103.572 14.9763H106.752C106.788 15.4983 106.937 15.934 107.2 16.2837C107.468 16.6283 107.825 16.8892 108.27 17.0666C108.721 17.2389 109.229 17.325 109.796 17.325C110.353 17.325 110.836 17.2439 111.246 17.0818C111.661 16.9196 111.982 16.6941 112.21 16.4053C112.437 16.1165 112.551 15.7846 112.551 15.4096C112.551 15.0599 112.447 14.766 112.24 14.5279C112.038 14.2897 111.739 14.087 111.344 13.9198C110.955 13.7526 110.477 13.6006 109.91 13.4637L108.217 13.0381C106.907 12.7188 105.872 12.2197 105.113 11.5407C104.354 10.8617 103.977 9.94703 103.982 8.79676C103.977 7.85424 104.227 7.0308 104.733 6.32645C105.244 5.62209 105.945 5.07229 106.836 4.67704C107.726 4.28179 108.738 4.08417 109.872 4.08417C111.026 4.08417 112.033 4.28179 112.893 4.67704C113.758 5.07229 114.431 5.62209 114.912 6.32645C115.392 7.0308 115.64 7.84664 115.656 8.77395H112.506Z" fill="white"/>
<path d="M118.079 19.8637V4.29699H128.553V7.01053H121.365V10.7198H128.015V13.4333H121.365V17.1502H128.584V19.8637H118.079Z" fill="white"/>
<path d="M144.169 4.29699V19.8637H141.33L134.567 10.0661H134.453V19.8637H131.166V4.29699H134.051L140.761 14.087H140.897V4.29699H144.169Z" fill="white"/>
<path d="M152.395 19.8637H146.884V4.29699H152.44C154.004 4.29699 155.35 4.60863 156.478 5.23191C157.607 5.85012 158.474 6.73943 159.082 7.89984C159.694 9.06026 160 10.4487 160 12.0652C160 13.6867 159.694 15.0802 159.082 16.2457C158.474 17.4112 157.601 18.3055 156.463 18.9288C155.329 19.5521 153.973 19.8637 152.395 19.8637ZM150.171 17.0438H152.258C153.229 17.0438 154.047 16.8715 154.71 16.5269C155.377 16.1773 155.878 15.6376 156.212 14.9079C156.551 14.1732 156.721 13.2256 156.721 12.0652C156.721 10.9149 156.551 9.9749 156.212 9.24521C155.878 8.51552 155.38 7.97839 154.717 7.63381C154.054 7.28923 153.237 7.11695 152.265 7.11695H150.171V17.0438Z" fill="white"/>
<path fill-rule="evenodd" clip-rule="evenodd" d="M31.9757 3.87872C31.9833 3.77876 31.9828 3.67294 31.9761 3.56414C31.9778 2.11132 31.975 2.95198 31.9733 3.52373C31.9143 2.74047 31.5469 1.82269 31.5469 1.82269C31.5469 1.82269 31.3777 1.31949 30.7288 0.810084C30.5449 0.655213 30.2673 0.521493 30.0301 0.434697C27.8749 -0.368589 25.9483 0.798899 24.2503 2.02936C22.2377 3.48786 20.1943 4.90042 18.1233 6.27894C16.836 7.13499 15.4387 7.24221 14.1583 6.43381C12.3072 5.266 10.4954 4.03584 8.6837 2.80572C7.95549 2.31129 7.22729 1.81685 6.49655 1.32648C6.45193 1.2823 6.19781 1.10014 5.99196 0.952593C5.8648 0.861442 5.75606 0.7835 5.72653 0.759454C5.41964 0.569523 5.1991 0.465092 5.02809 0.384114C4.97116 0.357159 4.91973 0.332804 4.87242 0.308758C4.82852 0.286443 4.79824 0.272183 4.76436 0.256225C4.73413 0.241986 4.70103 0.226394 4.65281 0.202521C4.45 0.1029 4.25726 0.0729554 4.03107 0.0378139C4.01382 0.035134 3.99638 0.0324239 3.97872 0.0296503C2.50583 -0.203507 0.407349 0.967384 0.173612 2.5229C0.173612 2.5229 0.0601807 2.98719 0.0601807 3.37554C0.0601807 7.78198 0.0661482 12.1884 0.0721158 16.5949C0.0733086 17.4756 0.0745014 18.3564 0.0756465 19.2371L0.0756465 19.2502C0.0756465 19.3472 0.0704926 19.8191 0.0704926 19.8191C0.0765079 19.9799 0.0820935 20.1407 0.0876792 20.3016C0.0932648 20.4624 0.0988505 20.6232 0.104866 20.784C0.102989 20.7952 0.118152 20.9017 0.132024 20.9992C0.143555 21.0802 0.154195 21.155 0.153415 21.1634C0.153415 21.1634 0.168456 21.264 0.170175 21.2708C0.539686 22.8535 2.05726 23.8729 3.61265 23.8644C4.22277 23.861 4.83977 23.6994 5.39489 23.3505C5.68562 23.1679 5.97458 22.9828 6.26206 22.7956C8.94657 19.1051 14.1471 13.657 22.7932 12.615C21.8992 11.3922 21.4582 10.7533 21.5544 10.3175C21.8266 9.08303 28.0794 11.1076 28.3394 12.5047C28.5429 13.5985 24.204 18.2931 23.1338 17.6793C22.3907 17.2532 22.856 15.8092 23.1403 14.927C23.1751 14.8189 23.2072 14.7192 23.2341 14.6308C21.4339 15.1202 19.8788 15.8183 18.538 16.6375C18.8639 16.902 19.1905 17.1657 19.517 17.4294C19.7946 17.6535 20.072 17.8775 20.3489 18.1019C22.0349 19.4685 23.7227 20.8334 25.4207 22.1847C26.3986 22.9624 27.4023 23.73 28.6947 23.9597C30.0542 24.1997 31.3483 23.3437 31.6474 22.0128C31.8519 21.1006 31.9464 20.1833 31.9447 19.2472C31.9396 17.6656 31.953 16.0846 31.9664 14.5034C31.9753 13.4492 31.9842 12.3949 31.9877 11.3403C31.9913 10.0514 31.9868 8.78902 31.9823 7.50196C31.9782 6.34007 31.974 5.15809 31.9756 3.91844L31.9757 3.87872Z" fill="url(#paint0_linear_4001_8)"/>
<defs>
<linearGradient id="paint0_linear_4001_8" x1="0.0601807" y1="0" x2="31.7792" y2="24.2281" gradientUnits="userSpaceOnUse">
<stop stop-color="#00FFA3"/>
<stop offset="1" stop-color="#9945FF"/>
</linearGradient>
</defs>
</svg>
