<svg width="27" height="25" viewBox="0 0 27 25" fill="none" xmlns="http://www.w3.org/2000/svg">
<path d="M24.7553 1L15.0114 8.22767L16.825 3.95516L24.7553 1Z" fill="#E17726" stroke="#E17726" stroke-width="0.25" stroke-linecap="round" stroke-linejoin="round"/>
<path d="M2.24467 1L11.9175 8.29888L10.175 3.99076L2.24467 1ZM21.2347 17.7696L18.6387 21.7573L24.2219 23.2883L25.8222 17.8764C25.7866 17.8764 21.2347 17.7696 21.2347 17.7696ZM1.21338 17.8764L2.81366 23.2883L8.36132 21.7573L5.7653 17.7696L1.21338 17.8764Z" fill="#E27625" stroke="#E27625" stroke-width="0.25" stroke-linecap="round" stroke-linejoin="round"/>
<path d="M8.04125 11.076L6.51208 13.4259L11.9886 13.6395L11.8108 7.7292L8.04125 11.076ZM18.9587 11.076L15.1181 7.65799L14.9758 13.6751L20.4879 13.4259C20.4879 13.3903 18.9587 11.076 18.9587 11.076ZM8.3613 21.7573L11.7041 20.1551L8.82361 17.912L8.3613 21.7573ZM15.3314 20.1195L18.6387 21.7217L18.1764 17.8764C18.2119 17.912 15.3314 20.1195 15.3314 20.1195Z" fill="#E27625" stroke="#E27625" stroke-width="0.25" stroke-linecap="round" stroke-linejoin="round"/>
<path d="M18.6387 21.7573L15.3315 20.1551L15.616 22.327L15.5804 23.2527L18.6387 21.7573ZM8.36133 21.7573L11.4552 23.2171L11.4196 22.2914L11.7041 20.1195L8.36133 21.7573Z" fill="#D5BFB2" stroke="#D5BFB2" stroke-width="0.25" stroke-linecap="round" stroke-linejoin="round"/>
<path d="M11.4907 16.4879L8.75244 15.669L10.7083 14.7789L11.4907 16.4879ZM15.5092 16.4879L16.3271 14.7789L18.283 15.669L15.5092 16.4879Z" fill="#233447" stroke="#233447" stroke-width="0.25" stroke-linecap="round" stroke-linejoin="round"/>
<path d="M8.36135 21.7573L8.85922 17.7696L5.8009 17.8764C5.76534 17.8764 8.36135 21.7573 8.36135 21.7573ZM18.1764 17.7696L18.6387 21.7573L21.2348 17.8764L18.1764 17.7696ZM20.488 13.3903L14.9759 13.6395L15.4737 16.4523L16.2917 14.7433L18.2476 15.6334C18.2831 15.669 20.488 13.3903 20.488 13.3903ZM8.75253 15.669L10.7084 14.7789L11.5264 16.4879L12.0242 13.6751L6.51214 13.4259L8.75253 15.669Z" fill="#CC6228" stroke="#CC6228" stroke-width="0.25" stroke-linecap="round" stroke-linejoin="round"/>
<path d="M6.51208 13.3903L8.82361 17.8764L8.75248 15.6334C8.75248 15.669 6.51208 13.3903 6.51208 13.3903ZM18.2831 15.669L18.1764 17.912L20.4879 13.4259C20.4879 13.3903 18.2831 15.669 18.2831 15.669ZM12.0242 13.6395L11.4907 16.4523L12.1309 19.7991L12.2731 15.3841L12.0242 13.6395ZM15.0114 13.6395L14.7269 15.3841L14.8691 19.7991L15.5092 16.4523L15.0114 13.6395Z" fill="#E27525" stroke="#E27525" stroke-width="0.25" stroke-linecap="round" stroke-linejoin="round"/>
<path d="M15.5092 16.4879L14.8691 19.8347L15.3314 20.1551L18.1763 17.912L18.283 15.669L15.5092 16.4879ZM8.75244 15.669L8.82357 17.912L11.7041 20.1551L12.1664 19.8347L11.5263 16.4879L8.75244 15.669Z" fill="#F5841F" stroke="#F5841F" stroke-width="0.25" stroke-linecap="round" stroke-linejoin="round"/>
<path d="M15.5804 23.2171L15.616 22.2914L15.367 22.0778H11.6686L11.4196 22.2914L11.4552 23.2171L8.36133 21.7573L9.46375 22.6474L11.6686 24.1428H15.4381L17.643 22.6118L18.7098 21.7217L15.5804 23.2171Z" fill="#C0AC9D" stroke="#C0AC9D" stroke-width="0.25" stroke-linecap="round" stroke-linejoin="round"/>
<path d="M15.3315 20.1195L14.8692 19.7991H12.1665L11.7042 20.1195L11.4197 22.2914L11.6686 22.0777H15.367L15.616 22.2914L15.3315 20.1195Z" fill="#161616" stroke="#161616" stroke-width="0.25" stroke-linecap="round" stroke-linejoin="round"/>
<path d="M25.1821 8.72613L26 4.73845L24.7553 1L15.3314 8.01405L18.9587 11.076L24.0797 12.5714L25.2176 11.254L24.7198 10.898L25.5021 10.1859L24.8976 9.72305L25.6799 9.11778L25.1821 8.72613ZM1 4.73845L1.81792 8.72613L1.32006 9.11778L2.10242 9.72305L1.49787 10.1859L2.28023 10.898L1.78236 11.254L2.92034 12.5714L8.04125 11.076L11.6686 8.01405L2.24467 1L1 4.73845Z" fill="#763E1A" stroke="#763E1A" stroke-width="0.25" stroke-linecap="round" stroke-linejoin="round"/>
<path d="M24.0797 12.5714L18.9588 11.076L20.4879 13.3903L18.1764 17.8764L21.2347 17.8408H25.7866L24.0797 12.5714ZM8.04126 11.076L2.92035 12.5714L1.21338 17.8764H5.7653L8.82362 17.9121L6.5121 13.4259L8.04126 11.076ZM15.0114 13.6395L15.3314 7.97846L16.825 3.95517H10.175L11.6686 7.97846L11.9886 13.6395L12.1309 15.4198V19.7991H14.8691V15.4198L15.0114 13.6395Z" fill="#F5841F" stroke="#F5841F" stroke-width="0.25" stroke-linecap="round" stroke-linejoin="round"/>
</svg>
