<svg width="25" height="25" viewBox="0 0 25 25" fill="none" xmlns="http://www.w3.org/2000/svg">
<g clip-path="url(#clip0_343_1514)">
<path d="M12.5 25C19.4036 25 25 19.4036 25 12.5C25 5.59644 19.4036 0 12.5 0C5.59644 0 0 5.59644 0 12.5C0 19.4036 5.59644 25 12.5 25Z" fill="url(#paint0_linear_343_1514)"/>
<path d="M21.4534 12.6744H19.2441C19.2441 8.19767 15.5814 4.53488 11.1046 4.53488C6.62786 4.53488 3.02321 8.08139 2.96507 12.5C2.84879 17.0349 7.15112 21.0465 11.7441 21.0465H12.3255C16.3372 21.0465 21.8023 17.907 22.6162 14.0698C22.7325 13.314 22.1511 12.6744 21.4534 12.6744ZM7.79065 12.8488C7.79065 13.4302 7.32554 13.9535 6.686 13.9535C6.10461 13.9535 5.58135 13.4884 5.58135 12.8488V11.1046C5.58135 10.5233 6.04647 10 6.686 10C7.2674 10 7.79065 10.4651 7.79065 11.1046V12.8488ZM11.6279 12.8488C11.6279 13.4302 11.1627 13.9535 10.5232 13.9535C9.94182 13.9535 9.41856 13.4884 9.41856 12.8488V11.1046C9.41856 10.5233 9.88368 10 10.5232 10C11.1046 10 11.6279 10.4651 11.6279 11.1046V12.8488Z" fill="url(#paint1_linear_343_1514)"/>
</g>
<defs>
<linearGradient id="paint0_linear_343_1514" x1="12.5" y1="0" x2="12.5" y2="25" gradientUnits="userSpaceOnUse">
<stop stop-color="#534BB1"/>
<stop offset="1" stop-color="#551BF9"/>
</linearGradient>
<linearGradient id="paint1_linear_343_1514" x1="12.7659" y1="4.52128" x2="12.7659" y2="21.0106" gradientUnits="userSpaceOnUse">
<stop stop-color="white"/>
<stop offset="1" stop-color="white" stop-opacity="0.82"/>
</linearGradient>
<clipPath id="clip0_343_1514">
<rect width="25" height="25" fill="white"/>
</clipPath>
</defs>
</svg>
