<svg width="25" height="25" viewBox="0 0 25 25" fill="none" xmlns="http://www.w3.org/2000/svg">
<g clip-path="url(#clip0_343_1570)">
<path d="M12.6918 24.0558C12.9565 24.0558 13.1711 24.2671 13.1711 24.5279C13.1711 24.7886 12.9565 25 12.6918 25C12.427 25 12.2124 24.7886 12.2124 24.5279C12.2124 24.2671 12.427 24.0558 12.6918 24.0558ZM12.171 1.50366C12.4053 1.52293 12.5944 1.69968 12.6261 1.92884L13.1962 6.05397C13.3878 7.41681 15.0384 8.00731 16.0574 7.08119L21.7698 1.90377C21.9076 1.77888 22.1222 1.78754 22.2491 1.92311C22.3656 2.04748 22.3691 2.23791 22.2573 2.36634L17.276 8.08819C16.3589 9.13969 17.0356 10.7816 18.4335 10.8988L22.8287 11.3207C23.0476 11.3417 23.2078 11.5334 23.1864 11.7487C23.1688 11.9263 23.0314 12.0698 22.8522 12.0976L18.2338 12.8158C16.8929 12.9977 16.2856 14.5789 17.1578 15.6062L18.7814 17.5122C18.9123 17.6658 18.8918 17.8946 18.7356 18.0233C18.6034 18.1323 18.412 18.1366 18.2749 18.0334L16.2734 16.5282C15.1933 15.7194 13.6364 16.4069 13.5223 17.7455L13.0813 22.9661C13.063 23.1817 12.8706 23.3421 12.6514 23.3241C12.4654 23.3089 12.3151 23.1686 12.2898 22.9866L11.5904 17.9437C11.4029 16.5808 9.75231 15.9903 8.72931 16.9165L2.65239 22.4265C2.52661 22.5406 2.33066 22.5327 2.21473 22.4089C2.10837 22.2954 2.10514 22.1216 2.2072 22.0042L7.51069 15.9095C8.42775 14.858 7.75525 13.2161 6.35725 13.0989L1.96107 12.6769C1.74218 12.6559 1.58204 12.4642 1.60339 12.2489C1.62101 12.0712 1.75839 11.9278 1.93754 11.8999L6.55288 11.1819C7.89381 10.9999 8.50519 9.41875 7.633 8.3915L6.52775 7.09406C6.36556 6.90363 6.39094 6.61987 6.5845 6.46031C6.74856 6.32506 6.986 6.31987 7.156 6.44781L8.51331 7.46944C9.59338 8.27825 11.1503 7.59081 11.2644 6.25219L11.6295 1.95423C11.6526 1.68269 11.895 1.48097 12.171 1.50366ZM0.479351 11.7664C0.744088 11.7664 0.9587 11.9778 0.9587 12.2385C0.9587 12.4993 0.744088 12.7106 0.479351 12.7106C0.214612 12.7106 0 12.4993 0 12.2385C0 11.9778 0.214612 11.7664 0.479351 11.7664ZM24.5206 11.2871C24.7854 11.2871 25 11.4984 25 11.7591C25 12.0199 24.7854 12.2312 24.5206 12.2312C24.2559 12.2312 24.0413 12.0199 24.0413 11.7591C24.0413 11.4984 24.2559 11.2871 24.5206 11.2871ZM12.1018 0C12.3665 0 12.5811 0.211371 12.5811 0.472109C12.5811 0.73285 12.3665 0.944219 12.1018 0.944219C11.8371 0.944219 11.6224 0.73285 11.6224 0.472109C11.6224 0.211371 11.8371 0 12.1018 0Z" fill="white"/>
</g>
<defs>
<clipPath id="clip0_343_1570">
<rect width="25" height="25" fill="white"/>
</clipPath>
</defs>
</svg>
